<svg viewBox="0 0 245 145" xmlns="http://www.w3.org/2000/svg">
  <g fill="none" fill-rule="evenodd">
    <path d="M148 144.59h73c10.83-10.38 17.63-24.39 17.63-40.22.254191-19.5123271-10.013682-37.6511178-26.874392-47.475168-16.860711-9.8240502-37.704051-9.8124973-54.55386.0302377C140.351938 66.7678047 130.104179 84.9179666 130.38 104.43c-.02 15.84 6.78 29.78 17.62 40.16z" fill="#F5B336"/>
    <path fill="#EDF3F9" d="M114.72 56.91h70.55V143h-70.55z"/>
    <path d="M186.77 144.53h-73.55V55.41h73.55v89.12zm-70.55-3h67.55V58.41h-67.55v83.12z" fill="#434D58" fill-rule="nonzero"/>
    <path fill="#EDF3F9" d="M115.05 143h-74V88.87l72.21-50.49z"/>
    <path d="M116.58 144.53h-77V88.09l75.16-52.55 1.84 108.99zm-74-3h71l-1.78-100.3-69.25 48.42.03 51.88z" fill="#434D58" fill-rule="nonzero"/>
    <path fill="#4DBFFF" d="M23.71 92.38L92 46.15l5.23 7.74-68.3 46.22z"/>
    <path d="M28.54 102.2L21.62 92l70.79-47.91 6.92 10.22-70.79 47.89zm-2.75-9.42L29.34 98l65.82-44.55-3.55-5.24-65.82 44.57z" fill="#434D58" fill-rule="nonzero"/>
    <path d="M91.89 34.09h22.83V143H91.89V34.09zm49.8 59.14v39.42H122V93.23h19.69zm18.68 0v39.42h-18.68V93.23h18.68z" fill="#FFF" fill-rule="nonzero"/>
    <path d="M116.22 144.53H90.39V32.59h25.83v111.94zm-22.83-3h19.83V35.59H93.39v105.94zm68.48-7.38h-41.39V91.73h41.39v42.42zm-18.68-3h15.68V94.73h-15.68v36.42zm-19.71 0h16.71V94.73h-16.71v36.42z" fill="#434D58" fill-rule="nonzero"/>
    <path fill="#FFF" d="M178 93.23v39.42h-18.67V93.23z"/>
    <path d="M179.51 134.15h-21.68V91.73h21.68v42.42zm-18.68-3h15.68V94.73h-15.68v36.42z" fill="#434D58" fill-rule="nonzero"/>
    <path d="M102.79 131H91.37v-3h11.42v3zm12.45-10.37h-11.42v-3h11.42v3zm-12.45-10.38H91.37v-3h11.42v3zm12.45-10.38h-11.42v-3h11.42v3zM102.79 89.5H91.37v-3h11.42v3zm12.45-10.38h-11.42v-3h11.42v3zm-12.45-10.33H91.37v-3h11.42v3zm13.48-10.38h-11.41v-3h11.41v3zM102.79 48H91.37v-3h11.42v3z" fill="#C5CED3" fill-rule="nonzero"/>
    <path fill="#FFF" d="M56.62 104.64h19.71V143H56.62z"/>
    <path d="M77.83 144.53H55.12v-41.39h22.71v41.39zm-19.71-3h16.71v-35.39H58.12v35.39z" fill="#434D58" fill-rule="nonzero"/>
    <path d="M242.86 144.53H2.14c-.82842712 0-1.5-.671573-1.5-1.5s.67157288-1.5 1.5-1.5h240.72c.828427 0 1.5.671573 1.5 1.5s-.671573 1.5-1.5 1.5z" fill="#434D58"/>
    <path fill="#FFF" d="M122 72.48h56v10.37h-56z"/>
    <path d="M179.51 84.35h-59V71h59v13.35zm-56-3h53V74h-53v7.35z" fill="#434D58" fill-rule="nonzero"/>
    <path fill="#434D58" d="M184.04364647 139.95883425l.24508641-22.28865256 2.99981865.03298606-.24508641 22.28865256z"/>
    <path d="M198.39 112.42c0 6.8-5.81 12.3-13 12.3s-13-5.51-13-12.3c0-4.33 5.19-15.31 9-22.73.77305-1.4247934 2.263999-2.312116 3.885-2.312116 1.621001 0 3.11195.8873226 3.885 2.312116 3.85 7.4 9.19 18.4 9.19 22.73h.04z" fill="#2ECC71"/>
    <path d="M185.42 126.22c-8 0-14.47-6.19-14.47-13.8 0-4.58 5-15.26 9.15-23.42 1.037852-1.909256 3.036893-3.0978983 5.21-3.0978983S189.482148 87.090744 190.52 89c6.22 12 9.37 19.83 9.37 23.45 0 7.55-6.49 13.77-14.47 13.77zm-.1-37.33c-1.069937-.0005755-2.055116.5820985-2.57 1.52-5.59 10.91-8.8 19-8.8 22 0 6 5.14 10.8 11.47 10.8 6.33 0 11.47-4.85 11.47-10.8 0-1.76-1.17-7-9-22-.517656-.9216044-1.492966-1.4914912-2.55-1.49l-.02-.03z" fill="#434D58" fill-rule="nonzero"/>
    <path d="M187.21 115.78c-.234901-.002345-.461478-.087311-.64-.24l-1.69-1.42-1.69 1.42c-.372522.314423-.917478.314423-1.29 0l-2.33-2c-.273308-.230436-.402919-.589176-.340009-.941086.062909-.35191.308782-.643527.645-.765.336217-.121474.711701-.05435.985009.176086l1.69 1.42 1.68-1.42c.372522-.314423.917478-.314423 1.29 0l1.69 1.42 1.71-1.42c.269184-.260323.661254-.348435 1.015937-.228319.354683.120115.612534.428328.668148.798646.055614.370317-.10033.740673-.404085.959673l-2.35 2c-.178522.152689-.405099.237655-.64.24zm-4.67-5.19c-.234901-.002345-.461478-.087311-.64-.24l-2.33-2c-.422498-.356224-.476224-.987502-.12-1.41.356224-.422498.987502-.476224 1.41-.12l1.69 1.42 1.68-1.42c.372522-.314423.917478-.314423 1.29 0l1.69 1.42 1.71-1.42c.275095-.22865.651276-.29317.98684-.169256.335564.123914.57953.417436.64.77.060469.352564-.071745.710606-.34684.939256l-2.35 2c-.370781.308833-.909219.308833-1.28 0l-1.69-1.42-1.69 1.42c-.182549.151299-.412918.232815-.65.23z" fill="#1F864B" fill-rule="nonzero"/>
    <path d="M62.84 130.52c-.8284271 0-1.5-.671573-1.5-1.5v-5.19c0-.828427.6715729-1.5 1.5-1.5s1.5.671573 1.5 1.5V129c.0053509.401279-.150319.787968-.4322057 1.073613-.2818866.285645-.66648.446423-1.0677943.446387zm53.38 14.01H90.39V32.59h25.83v111.94zm-22.83-3h19.83V35.59H93.39v105.94z" fill="#434D58" fill-rule="nonzero"/>
    <path d="M229.71 122.66c-1.080221-3.141608-3.334298-5.743293-6.29-7.26-1.775611-.988109-3.685652-1.712375-5.67-2.15-4.02684-1.119974-8.266193-1.240117-12.35-.35-2.666102.403836-5.255543 1.209665-7.68 2.39-3.68 1.83-6.22 4.42-7.26 7.32l-.52 1.74h40.3l-.53-1.69z" fill="#FFF"/>
    <path d="M232.28 125.85h-44.35l1.09-3.67c1.2-3.35 4-6.25 8-8.24 2.566436-1.247653 5.307833-2.097385 8.13-2.52 4.300895-.925563 8.762324-.79172 13 .39 2.101457.460075 4.123327 1.228386 6 2.28 3.29677 1.683537 5.807741 4.585502 7 8.09l1.13 3.67zm-40.31-3h36.22c-.991113-2.647534-2.934567-4.829908-5.45-6.12-1.662899-.922259-3.451873-1.596072-5.31-2-3.81654-1.066814-7.835136-1.190357-11.71-.36-2.546927.383125-5.021455 1.148408-7.34 2.27-3.17 1.58-5.44 3.78-6.38 6.21h-.03z" fill="#424D57" fill-rule="nonzero"/>
    <path d="M176.34 130.58c0 3.51 2.37 6.22 5.3 6.22h50.59c2.93 0 5.3-2.71 5.3-6.22s-2.37-6.23-5.3-6.23h-50.59c-2.93 0-5.3 2.72-5.3 6.23z" fill="#4DBFFF"/>
    <path d="M232.23 138.3h-50.59c-3.81 0-6.8-3.39-6.8-7.72s3-7.73 6.8-7.73h50.59c3.82 0 6.8 3.4 6.8 7.73s-2.98 7.72-6.8 7.72zm-50.59-12.45c-2.13 0-3.8 2.08-3.8 4.73 0 2.65 1.67 4.72 3.8 4.72h50.59c2.13 0 3.8-2.07 3.8-4.72s-1.67-4.73-3.8-4.73h-50.59z" fill="#424D57" fill-rule="nonzero"/>
    <path d="M195.13 133.7c.451372 1.942722-.130729 3.980893-1.540015 5.392212C192.1807 140.50353 190.143371 141.08857 188.2 140.64c-2.136911-.487995-3.807031-2.154231-4.3-4.29-.451372-1.942722.130729-3.980893 1.540015-5.392212 1.409285-1.411318 3.446614-1.996358 5.389985-1.547788 2.13812.485802 3.809221 2.153017 4.3 4.29zm34.24 0c.451372 1.942722-.130729 3.980893-1.540015 5.392212-1.409285 1.411318-3.446614 1.996358-5.389985 1.547788-2.136911-.487995-3.807031-2.154231-4.3-4.29-.451372-1.942722.130729-3.980893 1.540015-5.392212 1.409285-1.411318 3.446614-1.996358 5.389985-1.547788 2.13812.485802 3.809221 2.153017 4.3 4.29z" fill="#EBEAEB" fill-rule="nonzero"/>
    <path d="M223.74 142.29c-.552248.001581-1.102742-.062196-1.64-.19-3.296009-.758659-5.631511-3.692806-5.631511-7.075s2.335502-6.316341 5.631511-7.075c1.083001-.244839 2.206999-.244839 3.29 0 3.290683.76746 5.618788 3.701008 5.618788 7.08s-2.328105 6.31254-5.618788 7.08c-.540915.125224-1.094808.185649-1.65.18zm0-11.53a4.51001775 4.51001775 0 0 0-1 .11c-1.925774.456214-3.285686 2.175925-3.285686 4.155 0 1.979075 1.359912 3.698786 3.285686 4.155.637977.149928 1.302023.149928 1.94 0 2.30002-.539913 3.730623-2.837819 3.2-5.14-.368127-1.573368-1.596632-2.801873-3.17-3.17-.307876-.073736-.623418-.110661-.94-.11h-.03zm-34.24 11.53c-.552248.001581-1.102742-.062196-1.64-.19-3.296009-.758659-5.631511-3.692806-5.631511-7.075s2.335502-6.316341 5.631511-7.075c1.083001-.244839 2.206999-.244839 3.29 0 2.689702.630152 4.789848 2.730298 5.42 5.42.910954 3.915647-1.524488 7.82847-5.44 8.74-.534404.123657-1.081491.184071-1.63.18zm0-11.53a4.51001775 4.51001775 0 0 0-1 .11c-1.925774.456214-3.285686 2.175925-3.285686 4.155 0 1.979075 1.359912 3.698786 3.285686 4.155 1.439553.329951 2.947608-.103766 3.991921-1.148079 1.044313-1.044313 1.47803-2.552368 1.148079-3.991921-.368127-1.573368-1.596632-2.801873-3.17-3.17-.307876-.073736-.623418-.110661-.94-.11h-.03zm21.14-18.34h3v23.86h-3v-23.86zm-4.79 18.1h-5.19c-.552285 0-1-.447715-1-1s.447715-1 1-1h5.19c.552285 0 1 .447715 1 1s-.447715 1-1 1z" fill="#424D57" fill-rule="nonzero"/>
    <g opacity=".05" transform="translate(78 24)" fill="#000">
      <circle cx="22.01" cy="22.33" r="20"/>
      <path d="M22 43.83C10.1258779 43.83.5 34.2041221.5 22.33S10.1258779.83 22 .83s21.5 9.6258779 21.5 21.5c-.0110261 11.869552-9.630448 21.4889739-21.5 21.5zm0-40c-10.2172679 0-18.5 8.2827321-18.5 18.5s8.2827321 18.5 18.5 18.5 18.5-8.2827321 18.5-18.5C40.4889771 12.1173014 32.2126986 3.84102289 22 3.83z" fill-rule="nonzero"/>
    </g>
    <circle fill="#4DBFFF" cx="96.01" cy="42.33" r="20"/>
    <path d="M96.39 63.83c-11.8741221 0-21.5-9.6258779-21.5-21.5s9.6258779-21.5 21.5-21.5c11.874122 0 21.5 9.6258779 21.5 21.5-.011026 11.869552-9.630448 21.4889739-21.5 21.5zm0-40c-10.2172679 0-18.5 8.2827321-18.5 18.5s8.2827321 18.5 18.5 18.5c10.217268 0 18.5-8.2827321 18.5-18.5-.011023-10.2126986-8.287301-18.4889771-18.5-18.5zM68.86 40.59h-5c-.8284271 0-1.5-.6715729-1.5-1.5s.6715729-1.5 1.5-1.5h5c.8284271 0 1.5.6715729 1.5 1.5s-.6715729 1.5-1.5 1.5zm2-11.94c-.2630356-.0010882-.5213484-.0699716-.75-.2l-4.72-2.72c-.4644453-.2679492-.7506612-.7633231-.7508331-1.2995191-.0001718-.536196.2857266-1.0317532.7500001-1.3.4642734-.2682468 1.0363877-.2684301 1.500833-.0004809l4.72 2.72c.5889674.339032.8764234 1.0316687.7005922 1.6881051C72.134761 28.1945415 71.5395769 28.6507567 70.86 28.65zm7.9-7.11c-.536242.0003438-1.0318791-.2856006-1.3-.75l-2.72-4.71c-.4142136-.7179702-.1679702-1.6357864.55-2.05.7179702-.4142136 1.6357864-.1679702 2.05.55L80 19.29c.2614889.4650409.2581666 1.033553-.0087396 1.495506-.2669062.4619531-.7577749.7487717-1.2912604.754494h.06z" fill="#434D58" fill-rule="nonzero"/>
    <path d="M53.57 55.83c-.3685937-.0009835-.7067616-.2046528-.88-.53l-.82-1.5-1.5-.82c-.3183158-.1761188-.5158771-.5112105-.5158771-.875s.1975613-.6988812.5158771-.875l1.5-.82.82-1.5c.1761188-.3183158.5112105-.5158771.875-.5158771s.6988812.1975613.875.5158771l.82 1.5 1.5.82c.3183158.1761188.5158771.5112105.5158771.875s-.1975613.6988812-.5158771.875l-1.5.82-.82 1.5c-.1715327.3222118-.5050035.5253607-.87.53zm-.64-3.72l.16.08c.1653604.0935756.3006401.232324.39.4l.09.15.08-.15c.092056-.1690527.2309473-.307944.4-.4l.15-.08-.15-.09c-.1690527-.092056-.307944-.2309473-.4-.4l-.08-.15-.09.15c-.0893599.167676-.2246396.3064244-.39.4l-.16.09zm14.72-46.3c-.2672459-.00110942-.5229286-.10914435-.71-.3l-3.85-3.85c-.3397768-.39676028-.3169323-.98819417.0524368-1.35756322C63.5118058-.06693227 64.1032397-.0897768 64.5.25l3.85 3.85c.3877236.39003745.3877236 1.01996255 0 1.41-.1846305.18841426-.4362307.29624295-.7.3z" fill="#F1C40F" fill-rule="nonzero"/>
    <path d="M44.44 31.8c-2.0544993 0-3.72-1.6655007-3.72-3.72 0-2.0544993 1.6655007-3.72 3.72-3.72 2.0544993 0 3.72 1.6655007 3.72 3.72-.0054946 2.052219-1.667781 3.7145054-3.72 3.72zm0-5.44c-.9499298 0-1.72.7700702-1.72 1.72 0 .9499298.7700702 1.72 1.72 1.72.9499298 0 1.72-.7700702 1.72-1.72 0-.9499298-.7700702-1.72-1.72-1.72z" fill="#4DBFFF" fill-rule="nonzero"/>
    <circle fill="#FFF" cx="96.39" cy="41.91" r="9"/>
    <path d="M96.39 51.91c-4.0446224 0-7.6909853-2.4364218-9.2387953-6.1731657-1.54781-3.7367439-.6922525-8.0379222 2.1677275-10.8979021 2.8599799-2.85998 7.1611582-3.7155375 10.8979018-2.1677275C103.953578 34.2190147 106.39 37.8653776 106.39 41.91c0 5.5228475-4.477153 10-10 10zm0-18c-4.418278 0-8 3.581722-8 8s3.581722 8 8 8 8-3.581722 8-8-3.581722-8-8-8z" fill="#434D58" fill-rule="nonzero"/>
    <path d="M110.09 11.14c-.552285 0-1-.4477153-1-1V8.42h-1.72c-.552285 0-1-.44771525-1-1s.447715-1 1-1h1.72V4.7c0-.55228475.447715-1 1-1s1 .44771525 1 1v1.72h1.72c.552285 0 1 .44771525 1 1s-.447715 1-1 1h-1.72v1.72c0 .5522847-.447715 1-1 1z" fill="#2ECC71"/>
    <circle fill="#444" cx="92.99" cy="38.81" r="1.25"/>
    <circle fill="#444" cx="100.03" cy="38.81" r="1.06"/>
    <path d="M96.56 47.25c2 0 3.55-1.77 3.55-4.44H93c0 2.67 1.6 4.44 3.56 4.44z" fill="#FFF"/>
    <path d="M96.56 47.82c-2.39 0-4.12-2.11-4.12-5 .0053441-.3125619.2574381-.5646559.57-.57h7.1c.314802 0 .57.2551977.57.57 0 2.89-1.68 5-4.12 5zm-2.95-4.44c.2 1.94 1.38 3.3 2.95 3.3 1.57 0 2.76-1.36 2.95-3.3h-5.9z" fill="#444" fill-rule="nonzero"/>
    <ellipse fill="#FADBD8" cx="96.53" cy="45.7" rx="1.69" ry="1"/>
    <path d="M96.56 48.2c-2.39 0-4.12-2.1-4.12-5 .0053441-.3125619.2574381-.5646559.57-.57h7.1c.314802 0 .57.2551977.57.57 0 2.9-1.68 5-4.12 5zm-2.95-4.43c.2 1.93 1.38 3.29 2.95 3.29 1.57 0 2.76-1.36 2.95-3.29h-5.9z" fill="#444" fill-rule="nonzero"/>
    <path d="M63.8 5.81c-.4062651.00236262-.77358-.24130378-.929371-.61651849C62.7148381 4.81826679 62.8015401 4.38609046 63.09 4.1L66.94.25c.3967603-.3397768.9881942-.31693227 1.3575632.05243678.3693691.36936905.3922136.96080294.0524368 1.35756322L64.5 5.51c-.1846305.18841426-.4362307.29624295-.7.3z" fill="#F1C40F"/>
  </g>
</svg>
